<mxfile host="65bd71144e">
    <diagram id="GBmEyO78uVN9H3SG8j9r" name="第 1 页">
        <mxGraphModel dx="913" dy="897" grid="1" gridSize="10" guides="1" tooltips="1" connect="1" arrows="1" fold="1" page="1" pageScale="1" pageWidth="827" pageHeight="1169" math="0" shadow="0">
            <root>
                <mxCell id="0"/>
                <mxCell id="1" parent="0"/>
                <mxCell id="2" value="&lt;font style=&quot;font-size: 14px;&quot;&gt;root&lt;br&gt;&lt;/font&gt;" style="rounded=1;whiteSpace=wrap;html=1;" parent="1" vertex="1">
                    <mxGeometry x="310" y="90" width="120" height="60" as="geometry"/>
                </mxCell>
                <mxCell id="13" value="alternate" style="edgeStyle=none;html=1;fontSize=14;entryX=0;entryY=0.5;entryDx=0;entryDy=0;" parent="1" source="7" target="12" edge="1">
                    <mxGeometry relative="1" as="geometry">
                        <mxPoint x="490" y="240" as="targetPoint"/>
                    </mxGeometry>
                </mxCell>
                <mxCell id="7" value="hostRootFibrt" style="rounded=1;whiteSpace=wrap;html=1;fontSize=14;" parent="1" vertex="1">
                    <mxGeometry x="310" y="210" width="120" height="60" as="geometry"/>
                </mxCell>
                <mxCell id="8" value="current&lt;br&gt;" style="endArrow=classic;html=1;fontSize=14;exitX=0.25;exitY=1;exitDx=0;exitDy=0;entryX=0.25;entryY=0;entryDx=0;entryDy=0;" parent="1" source="2" target="7" edge="1">
                    <mxGeometry width="50" height="50" relative="1" as="geometry">
                        <mxPoint x="420" y="290" as="sourcePoint"/>
                        <mxPoint x="470" y="240" as="targetPoint"/>
                        <Array as="points"/>
                    </mxGeometry>
                </mxCell>
                <mxCell id="9" value="stateNode&lt;br&gt;" style="endArrow=classic;html=1;fontSize=14;exitX=0.75;exitY=0;exitDx=0;exitDy=0;entryX=0.75;entryY=1;entryDx=0;entryDy=0;" parent="1" source="7" target="2" edge="1">
                    <mxGeometry width="50" height="50" relative="1" as="geometry">
                        <mxPoint x="350" y="160" as="sourcePoint"/>
                        <mxPoint x="450" y="150" as="targetPoint"/>
                        <Array as="points"/>
                    </mxGeometry>
                </mxCell>
                <mxCell id="10" value="finishedWork = null" style="text;html=1;align=center;verticalAlign=middle;resizable=0;points=[];autosize=1;strokeColor=none;fillColor=none;fontSize=14;" parent="1" vertex="1">
                    <mxGeometry x="170" y="95" width="140" height="30" as="geometry"/>
                </mxCell>
                <mxCell id="11" value="&lt;div style=&quot;text-align: left;&quot;&gt;&lt;/div&gt;&lt;div style=&quot;text-align: left;&quot;&gt;&lt;span style=&quot;background-color: initial;&quot;&gt;1、updateQueue.shared.pending = null&lt;/span&gt;&lt;/div&gt;&lt;div style=&quot;text-align: left;&quot;&gt;&lt;span style=&quot;background-color: initial;&quot;&gt;2、updateQueue.shared.pending={&lt;/span&gt;&lt;/div&gt;&lt;div style=&quot;text-align: left;&quot;&gt;&lt;span style=&quot;background-color: initial;&quot;&gt;&amp;nbsp; action:App,&lt;/span&gt;&lt;/div&gt;&lt;div style=&quot;text-align: left;&quot;&gt;&lt;span style=&quot;background-color: initial;&quot;&gt;&amp;nbsp; lane: 1,&lt;/span&gt;&lt;/div&gt;&lt;div style=&quot;text-align: left;&quot;&gt;&lt;span style=&quot;background-color: initial;&quot;&gt;&amp;nbsp; next: update&lt;/span&gt;&lt;/div&gt;&lt;div style=&quot;text-align: left;&quot;&gt;&lt;span style=&quot;background-color: initial;&quot;&gt;}&lt;/span&gt;&lt;/div&gt;" style="text;html=1;align=center;verticalAlign=middle;resizable=0;points=[];autosize=1;strokeColor=none;fillColor=none;fontSize=14;" parent="1" vertex="1">
                    <mxGeometry x="55" y="175" width="270" height="110" as="geometry"/>
                </mxCell>
                <mxCell id="14" style="edgeStyle=none;html=1;exitX=0;exitY=0.75;exitDx=0;exitDy=0;entryX=1;entryY=0.75;entryDx=0;entryDy=0;fontSize=14;" parent="1" source="12" target="7" edge="1">
                    <mxGeometry relative="1" as="geometry"/>
                </mxCell>
                <mxCell id="15" value="alternate" style="edgeLabel;html=1;align=center;verticalAlign=middle;resizable=0;points=[];fontSize=14;" parent="14" vertex="1" connectable="0">
                    <mxGeometry x="0.2601" y="2" relative="1" as="geometry">
                        <mxPoint x="15" as="offset"/>
                    </mxGeometry>
                </mxCell>
                <mxCell id="19" style="edgeStyle=none;html=1;entryX=0.25;entryY=0;entryDx=0;entryDy=0;fontSize=14;exitX=0.25;exitY=1;exitDx=0;exitDy=0;" parent="1" source="12" target="16" edge="1">
                    <mxGeometry relative="1" as="geometry"/>
                </mxCell>
                <mxCell id="20" value="child" style="edgeLabel;html=1;align=center;verticalAlign=middle;resizable=0;points=[];fontSize=14;" parent="19" vertex="1" connectable="0">
                    <mxGeometry x="-0.1537" y="-5" relative="1" as="geometry">
                        <mxPoint as="offset"/>
                    </mxGeometry>
                </mxCell>
                <mxCell id="12" value="wip" style="rounded=1;whiteSpace=wrap;html=1;" parent="1" vertex="1">
                    <mxGeometry x="550" y="210" width="120" height="60" as="geometry"/>
                </mxCell>
                <mxCell id="21" value="return" style="edgeStyle=none;html=1;exitX=0.75;exitY=0;exitDx=0;exitDy=0;entryX=0.75;entryY=1;entryDx=0;entryDy=0;fontSize=14;" parent="1" source="16" target="12" edge="1">
                    <mxGeometry relative="1" as="geometry"/>
                </mxCell>
                <mxCell id="29" value="memoizedState" style="edgeStyle=none;html=1;fontSize=14;fontColor=#FFFFFF;" parent="1" source="16" edge="1">
                    <mxGeometry relative="1" as="geometry">
                        <mxPoint x="940" y="420" as="targetPoint"/>
                        <mxPoint as="offset"/>
                    </mxGeometry>
                </mxCell>
                <mxCell id="16" value="App" style="rounded=1;whiteSpace=wrap;html=1;fontSize=14;" parent="1" vertex="1">
                    <mxGeometry x="550" y="390" width="120" height="60" as="geometry"/>
                </mxCell>
                <mxCell id="23" style="edgeStyle=none;html=1;fontSize=14;entryX=0.931;entryY=-0.066;entryDx=0;entryDy=0;entryPerimeter=0;" parent="1" source="22" target="16" edge="1">
                    <mxGeometry relative="1" as="geometry">
                        <mxPoint x="680" y="360" as="targetPoint"/>
                    </mxGeometry>
                </mxCell>
                <mxCell id="22" value="workInprogress&lt;br&gt;当前处理的fiber" style="text;html=1;align=center;verticalAlign=middle;resizable=0;points=[];autosize=1;fontSize=14;fontColor=#33FFFF;" parent="1" vertex="1">
                    <mxGeometry x="850" y="160" width="120" height="50" as="geometry"/>
                </mxCell>
                <mxCell id="25" value="" style="edgeStyle=none;html=1;fontSize=14;" parent="1" source="24" edge="1">
                    <mxGeometry relative="1" as="geometry">
                        <mxPoint x="540" y="430" as="targetPoint"/>
                        <Array as="points"/>
                    </mxGeometry>
                </mxCell>
                <mxCell id="49" value="&lt;div style=&quot;color: rgb(171, 178, 191); background-color: rgb(40, 44, 52); font-family: Menlo, Monaco, &amp;quot;Courier New&amp;quot;, monospace; font-size: 14px; line-height: 21px;&quot;&gt;&lt;span style=&quot;color: #e06c75;&quot;&gt;memoizedState&lt;/span&gt;&lt;/div&gt;" style="edgeStyle=none;html=1;" edge="1" parent="1">
                    <mxGeometry relative="1" as="geometry">
                        <mxPoint x="20" y="840" as="targetPoint"/>
                        <mxPoint x="540" y="440" as="sourcePoint"/>
                    </mxGeometry>
                </mxCell>
                <mxCell id="24" value="currentlyRenderingFiber&lt;br&gt;当前正在处理的函数式fiber" style="text;html=1;align=center;verticalAlign=middle;resizable=0;points=[];autosize=1;fontSize=14;fontColor=#3399FF;" parent="1" vertex="1">
                    <mxGeometry x="210" y="380" width="190" height="50" as="geometry"/>
                </mxCell>
                <mxCell id="26" value="&lt;div style=&quot;background-color: rgb(40, 44, 52); font-family: Menlo, Monaco, &amp;quot;Courier New&amp;quot;, monospace; font-weight: normal; font-size: 14px; line-height: 21px;&quot;&gt;&lt;div style=&quot;text-align: left; color: rgb(171, 178, 191);&quot;&gt;&lt;span style=&quot;color: #c678dd;&quot;&gt;const&lt;/span&gt;&lt;span style=&quot;color: #abb2bf;&quot;&gt; &lt;/span&gt;&lt;span style=&quot;color: #d19a66;&quot;&gt;hook&lt;/span&gt;&lt;span style=&quot;color: #56b6c2;&quot;&gt;:&lt;/span&gt;&lt;span style=&quot;color: #abb2bf;&quot;&gt; &lt;/span&gt;&lt;span style=&quot;color: #e5c07b;&quot;&gt;Hook&lt;/span&gt;&lt;span style=&quot;color: #abb2bf;&quot;&gt; &lt;/span&gt;&lt;span style=&quot;color: #56b6c2;&quot;&gt;=&lt;/span&gt;&lt;span style=&quot;color: #abb2bf;&quot;&gt; {&lt;/span&gt;&lt;/div&gt;&lt;div style=&quot;text-align: left;&quot;&gt;&lt;span style=&quot;color: rgb(171, 178, 191);&quot;&gt;&lt;/span&gt;&lt;span style=&quot;color: rgb(224, 108, 117);&quot;&gt;&amp;nbsp;memoizedState&lt;/span&gt;&lt;span style=&quot;color: rgb(86, 182, 194);&quot;&gt;:&lt;/span&gt;&lt;span style=&quot;color: rgb(171, 178, 191);&quot;&gt;&amp;nbsp;&lt;/span&gt;&lt;font color=&quot;#d19a66&quot;&gt;initalState&lt;/font&gt;&lt;span style=&quot;color: rgb(171, 178, 191);&quot;&gt;,&lt;/span&gt;&lt;/div&gt;&lt;div style=&quot;text-align: left;&quot;&gt;&lt;span style=&quot;color: rgb(171, 178, 191);&quot;&gt;&lt;/span&gt;&lt;span style=&quot;color: rgb(224, 108, 117);&quot;&gt;&amp;nbsp;updateQueue&lt;/span&gt;&lt;span style=&quot;color: rgb(86, 182, 194);&quot;&gt;:&lt;/span&gt;&lt;span style=&quot;color: rgb(171, 178, 191);&quot;&gt;&amp;nbsp;{&lt;/span&gt;&lt;/div&gt;&lt;div style=&quot;text-align: left;&quot;&gt;&lt;span style=&quot;text-align: center;&quot;&gt;&lt;font color=&quot;#abb2bf&quot;&gt;&amp;nbsp; &amp;nbsp;&amp;nbsp;&lt;/font&gt;&lt;/span&gt;&lt;span style=&quot;color: rgb(209, 154, 102); text-align: center;&quot;&gt;shared.pending=null&lt;/span&gt;&lt;/div&gt;&lt;div style=&quot;&quot;&gt;&lt;font color=&quot;#d19a66&quot;&gt;&amp;nbsp; &amp;nbsp;dispatch:&lt;/font&gt;&lt;span style=&quot;color: rgb(97, 175, 239);&quot;&gt;dispatchSetState&lt;/span&gt;&lt;/div&gt;&lt;div style=&quot;&quot;&gt;&lt;font color=&quot;#d19a66&quot;&gt;}&lt;/font&gt;&lt;span style=&quot;color: rgb(171, 178, 191);&quot;&gt;,&lt;/span&gt;&lt;/div&gt;&lt;div style=&quot;text-align: left; color: rgb(171, 178, 191);&quot;&gt;&lt;span style=&quot;color: #abb2bf;&quot;&gt;&lt;/span&gt;&lt;span style=&quot;color: #e06c75;&quot;&gt;&amp;nbsp;next&lt;/span&gt;&lt;span style=&quot;color: #56b6c2;&quot;&gt;:&lt;/span&gt;&lt;span style=&quot;color: #abb2bf;&quot;&gt; &lt;/span&gt;&lt;span style=&quot;color: #d19a66;&quot;&gt;null&lt;/span&gt;&lt;/div&gt;&lt;div style=&quot;text-align: left; color: rgb(171, 178, 191);&quot;&gt;&lt;span style=&quot;color: #abb2bf;&quot;&gt;  }&lt;/span&gt;&lt;/div&gt;&lt;/div&gt;" style="rounded=1;whiteSpace=wrap;html=1;fontSize=14;fontColor=#3399FF;" parent="1" vertex="1">
                    <mxGeometry x="940" y="370" width="440" height="200" as="geometry"/>
                </mxCell>
                <mxCell id="28" style="edgeStyle=none;html=1;fontSize=14;fontColor=#3399FF;" parent="1" source="27" edge="1">
                    <mxGeometry relative="1" as="geometry">
                        <mxPoint x="1230" y="360" as="targetPoint"/>
                    </mxGeometry>
                </mxCell>
                <mxCell id="27" value="当前正在执行的hook&lt;br&gt;workInprogressHook" style="text;html=1;align=center;verticalAlign=middle;resizable=0;points=[];autosize=1;strokeColor=none;fillColor=none;fontSize=14;fontColor=#3399FF;" parent="1" vertex="1">
                    <mxGeometry x="1250" y="230" width="150" height="50" as="geometry"/>
                </mxCell>
                <mxCell id="33" style="edgeStyle=none;html=1;entryX=0;entryY=0.5;entryDx=0;entryDy=0;" edge="1" parent="1" source="30" target="31">
                    <mxGeometry relative="1" as="geometry"/>
                </mxCell>
                <mxCell id="35" value="&lt;span style=&quot;color: rgb(224, 108, 117); font-family: Menlo, Monaco, &amp;quot;Courier New&amp;quot;, monospace; font-size: 14px; background-color: rgb(40, 44, 52);&quot;&gt;updateQueue&lt;/span&gt;" style="edgeLabel;html=1;align=center;verticalAlign=middle;resizable=0;points=[];" vertex="1" connectable="0" parent="33">
                    <mxGeometry x="-0.103" y="3" relative="1" as="geometry">
                        <mxPoint as="offset"/>
                    </mxGeometry>
                </mxCell>
                <mxCell id="34" style="edgeStyle=none;html=1;entryX=0;entryY=0.5;entryDx=0;entryDy=0;" edge="1" parent="1" source="30" target="32">
                    <mxGeometry relative="1" as="geometry"/>
                </mxCell>
                <mxCell id="36" value="&lt;span style=&quot;color: rgb(224, 108, 117); font-family: Menlo, Monaco, &amp;quot;Courier New&amp;quot;, monospace; font-size: 14px; background-color: rgb(40, 44, 52);&quot;&gt;memoizedState&lt;/span&gt;" style="edgeLabel;html=1;align=center;verticalAlign=middle;resizable=0;points=[];" vertex="1" connectable="0" parent="34">
                    <mxGeometry x="-0.3691" y="4" relative="1" as="geometry">
                        <mxPoint x="1" as="offset"/>
                    </mxGeometry>
                </mxCell>
                <mxCell id="38" value="next" style="edgeStyle=none;html=1;" edge="1" parent="1" source="30" target="37">
                    <mxGeometry relative="1" as="geometry"/>
                </mxCell>
                <mxCell id="30" value="hook" style="rounded=1;whiteSpace=wrap;html=1;" vertex="1" parent="1">
                    <mxGeometry x="14" y="860" width="80" height="40" as="geometry"/>
                </mxCell>
                <mxCell id="40" value="dispatch 调用后" style="edgeStyle=none;html=1;" edge="1" parent="1" source="31" target="39">
                    <mxGeometry relative="1" as="geometry"/>
                </mxCell>
                <mxCell id="31" value="&lt;div style=&quot;color: rgb(171, 178, 191); background-color: rgb(40, 44, 52); font-family: Menlo, Monaco, &amp;quot;Courier New&amp;quot;, monospace; font-size: 14px; line-height: 21px;&quot;&gt;&lt;div style=&quot;line-height: 21px;&quot;&gt;&lt;div&gt;{&lt;/div&gt;&lt;div&gt;    &lt;span style=&quot;color: #e06c75;&quot;&gt;shared&lt;/span&gt;&lt;span style=&quot;color: #56b6c2;&quot;&gt;:&lt;/span&gt; {&lt;/div&gt;&lt;div&gt;      &lt;span style=&quot;color: #e06c75;&quot;&gt;pending&lt;/span&gt;&lt;span style=&quot;color: #56b6c2;&quot;&gt;:&lt;/span&gt; &lt;span style=&quot;color: #d19a66;&quot;&gt;null&lt;/span&gt;&lt;/div&gt;&lt;div&gt;    },&lt;/div&gt;&lt;div&gt;    &lt;span style=&quot;color: #e06c75;&quot;&gt;dispatch&lt;/span&gt;&lt;span style=&quot;color: #56b6c2;&quot;&gt;:&lt;/span&gt;&amp;nbsp;&lt;span style=&quot;&quot;&gt;dispatchSetState&lt;/span&gt;&lt;/div&gt;&lt;div&gt;  }&lt;/div&gt;&lt;/div&gt;&lt;/div&gt;" style="rounded=1;whiteSpace=wrap;html=1;" vertex="1" parent="1">
                    <mxGeometry x="150" y="740" width="270" height="140" as="geometry"/>
                </mxCell>
                <mxCell id="32" value="&lt;div style=&quot;color: rgb(171, 178, 191); background-color: rgb(40, 44, 52); font-family: Menlo, Monaco, &amp;quot;Courier New&amp;quot;, monospace; font-size: 14px; line-height: 21px;&quot;&gt;state&lt;/div&gt;" style="rounded=1;whiteSpace=wrap;html=1;" vertex="1" parent="1">
                    <mxGeometry x="164" y="940" width="120" height="60" as="geometry"/>
                </mxCell>
                <mxCell id="37" value="nextHook" style="rounded=1;whiteSpace=wrap;html=1;" vertex="1" parent="1">
                    <mxGeometry x="144" y="1060" width="120" height="60" as="geometry"/>
                </mxCell>
                <mxCell id="46" style="edgeStyle=none;html=1;entryX=0.371;entryY=0.999;entryDx=0;entryDy=0;entryPerimeter=0;" edge="1" parent="1" source="39" target="41">
                    <mxGeometry relative="1" as="geometry">
                        <mxPoint x="690" y="690" as="targetPoint"/>
                    </mxGeometry>
                </mxCell>
                <mxCell id="39" value="&lt;span style=&quot;color: rgb(204, 204, 204); font-family: -apple-system, &amp;quot;system-ui&amp;quot;, &amp;quot;PingFang SC&amp;quot;, &amp;quot;Hiragino Sans GB&amp;quot;, sans-serif; font-size: 14px; text-align: start; background-color: rgb(33, 37, 43);&quot;&gt;.pending&amp;nbsp; = 0x0002&lt;/span&gt;&lt;span style=&quot;background-color: rgb(40, 44, 52); color: rgb(171, 178, 191); font-family: Menlo, Monaco, &amp;quot;Courier New&amp;quot;, monospace; font-size: 14px;&quot;&gt;&lt;br&gt;&lt;/span&gt;" style="rounded=1;whiteSpace=wrap;html=1;" vertex="1" parent="1">
                    <mxGeometry x="580" y="760" width="130" height="90" as="geometry"/>
                </mxCell>
                <mxCell id="47" style="edgeStyle=none;html=1;exitX=0;exitY=0.25;exitDx=0;exitDy=0;entryX=1;entryY=0.25;entryDx=0;entryDy=0;" edge="1" parent="1" source="41" target="45">
                    <mxGeometry relative="1" as="geometry"/>
                </mxCell>
                <mxCell id="41" value="&lt;div style=&quot;text-align: start;&quot;&gt;&lt;span style=&quot;font-size: 14px; background-color: rgb(33, 37, 43);&quot;&gt;&lt;font face=&quot;-apple-system, system-ui, PingFang SC, Hiragino Sans GB, sans-serif&quot; color=&quot;#cccccc&quot;&gt;0x0002 -&amp;gt; update =&amp;nbsp;&lt;/font&gt;&lt;/span&gt;&lt;span style=&quot;background-color: rgb(40, 44, 52); color: rgb(171, 178, 191); font-family: Menlo, Monaco, &amp;quot;Courier New&amp;quot;, monospace; font-size: 14px;&quot;&gt;{&lt;/span&gt;&lt;/div&gt;&lt;div style=&quot;background-color: rgb(40, 44, 52); font-family: Menlo, Monaco, &amp;quot;Courier New&amp;quot;, monospace; font-size: 14px; line-height: 21px;&quot;&gt;&lt;div style=&quot;color: rgb(171, 178, 191);&quot;&gt;    action（2）,&lt;/div&gt;&lt;div style=&quot;color: rgb(171, 178, 191);&quot;&gt;    lane,&lt;/div&gt;&lt;div style=&quot;&quot;&gt;    &lt;span style=&quot;color: rgb(224, 108, 117);&quot;&gt;next&lt;/span&gt;&lt;span style=&quot;color: rgb(86, 182, 194);&quot;&gt;:&lt;/span&gt;&lt;font color=&quot;#abb2bf&quot;&gt;&amp;nbsp;&lt;/font&gt;&lt;font color=&quot;#d19a66&quot;&gt;0x0001&lt;/font&gt;&lt;/div&gt;&lt;div style=&quot;color: rgb(171, 178, 191);&quot;&gt;  }： Update&lt;/div&gt;&lt;/div&gt;" style="rounded=1;whiteSpace=wrap;html=1;" vertex="1" parent="1">
                    <mxGeometry x="610" y="580" width="190" height="120" as="geometry"/>
                </mxCell>
                <mxCell id="48" style="edgeStyle=none;html=1;exitX=1;exitY=0.75;exitDx=0;exitDy=0;entryX=0;entryY=0.75;entryDx=0;entryDy=0;" edge="1" parent="1" source="45" target="41">
                    <mxGeometry relative="1" as="geometry"/>
                </mxCell>
                <mxCell id="45" value="&lt;span style=&quot;background-color: rgb(40, 44, 52); color: rgb(171, 178, 191); font-family: Menlo, Monaco, &amp;quot;Courier New&amp;quot;, monospace; font-size: 14px;&quot;&gt;0x0001 -&amp;gt; update = {&lt;/span&gt;&lt;div style=&quot;color: rgb(171, 178, 191); background-color: rgb(40, 44, 52); font-family: Menlo, Monaco, &amp;quot;Courier New&amp;quot;, monospace; font-size: 14px; line-height: 21px;&quot;&gt;&lt;div&gt;    action（1）,&lt;/div&gt;&lt;div&gt;    lane,&lt;/div&gt;&lt;div&gt;    &lt;span style=&quot;color: #e06c75;&quot;&gt;next&lt;/span&gt;&lt;span style=&quot;color: #56b6c2;&quot;&gt;:&lt;/span&gt; &lt;span style=&quot;color: #d19a66;&quot;&gt;0x0002&lt;/span&gt;&lt;/div&gt;&lt;div&gt;  }&lt;/div&gt;&lt;/div&gt;" style="rounded=1;whiteSpace=wrap;html=1;" vertex="1" parent="1">
                    <mxGeometry x="350" y="585" width="190" height="120" as="geometry"/>
                </mxCell>
            </root>
        </mxGraphModel>
    </diagram>
</mxfile>